PathFileType	4	(X/Y/Z)	C:/Users/beibeiliu/ov580/test_trc/User1\sequence.9_training_dense_right.trc
DataRate	CameraRate	NumFrames	NumMarkers	Units	OrigDataRate	OrigDataStartFrame	OrigNumFrames
120	120	12	19	mm	120	236	314
Frame#	Time	ThumbCMC			ThumbMCP			ThumbIP			ThumbTip			IndexMCP			IndexPIP			IndexTip			MiddleMCP			MiddlePIP			MiddleTip			RingMCP			RingPIP			RingTip			PinkyMCP			PinkyPIP			PinkyTip			BackHand1			BackHand2			BackHand3	
		X0	Y0	Z0	X1	Y1	Z1	X2	Y2	Z2	X3	Y3	Z3	X4	Y4	Z4	X5	Y5	Z5	X6	Y6	Z6	X7	Y7	Z7	X8	Y8	Z8	X9	Y9	Z9	X10	Y10	Z10	X11	Y11	Z11	X12	Y12	Z12	X13	Y13	Z13	X14	Y14	Z14	X15	Y15	Z15	X16	Y16	Z16	X17	Y17	Z17	X18	Y18	Z18	
235	1.95833	108.689	97.1951	1.71471	99.4386	69.8967	-4.46628	89.2995	47.3824	-20.8456	78.2216	31.2843	-24.8862	150.112	92.8929	-72.0225	159.187	84.8889	-96.9521	174.851	79.976	-113.619	175.16	116.913	-69.4124	186.983	115.714	-96.2427	199.437	116.327	-118.147	195.08	125.499	-49.7505	209.183	130.384	-71.6863	221.273	132.632	-93.9717	213.152	125.006	-21.0818	234.168	130.673	-27.1822	243.77	140.982	-36.6502	166.763	135.918	-9.82681	154.996	147.984	16.9513	133.713	128.727	-9.81923	
236	1.96667	109.331	95.5298	1.36559	103.136	68.189	-3.79396	97.63	45.5133	-22.2274	86.8133	27.2068	-29.7269	154.32	95.7176	-71.8469	161.2	85.5754	-95.5471	173.918	79.5339	-118.739	176.379	119.142	-69.2454	185.645	117.58	-94.0316	203.015	121.73	-121.675	197.028	129.977	-52.421	208.917	135.394	-72.0736	219.869	136.655	-93.6933	215.562	130.338	-23.6495	230.409	133.933	-30.1777	243.58	150.295	-41.2976	172.094	137.841	-8.66561	153.373	147.656	20.4625	134.982	127.545	-9.98084	
237	1.975	109.01	93.0293	1.33786	103.027	64.062	-5.13237	99.4012	43.5136	-20.8657	90.9993	25.5308	-27.1834	154.236	94.7342	-70.5781	165.63	86.2793	-91.8994	179.047	80.3753	-118.023	176.899	119.229	-71.7174	187.98	117.973	-96.1028	201.084	120.714	-121.988	195.614	130.595	-54.427	205.771	133.638	-73.901	220.038	138.449	-93.4657	213.919	131.47	-21.647	230.734	138.646	-27.1669	241.759	150.893	-40.204	166.688	137.581	-11.5371	150.869	147.665	16.8908	131.59	128.227	-8.66601	
238	1.98333	108.998	94.1232	6.07796	106.791	64.0419	-3.86009	97.3333	41.6022	-17.6148	89.6915	25.1883	-22.4089	155.397	91.9721	-70.1829	161.39	80.4755	-90.9459	176.806	74.4602	-112.823	175.548	116.704	-69.5656	189.657	115.492	-96.7842	199.049	115.969	-118.82	193.47	127.952	-52.8451	206.594	132.274	-73.0686	220.802	136.403	-98.2444	214.923	130.634	-19.531	227.03	134.062	-28.6785	238.291	150.124	-40.6615	165.077	137.025	-9.27587	153.536	147.816	20.5196	131.096	126.473	-9.65963	
239	1.99167	107.194	91.6785	3.95534	105.283	65.8285	-1.1978	96.5678	42.9308	-13.8683	86.0107	24.7221	-22.789	149.424	85.8334	-68.2858	161.159	75.4471	-88.0071	174.372	66.7405	-109.879	175.24	111.277	-68.5397	187.532	109.216	-91.6198	196.619	106.385	-120.064	196.078	123.312	-54.1068	208.094	125.18	-75.4772	220.526	128.439	-97.4309	212.628	125.411	-17.6788	226.793	126.899	-28.5051	241.526	144.549	-38.028	167.176	131.897	-11.6102	152	145.515	16.2265	131.132	126.126	-6.26421	
240	2	108.661	96.3047	7.69485	97.214	65.8615	0.339513	91.8425	46.2216	-11.2152	78.6147	31.1212	-14.658	151.185	80.6196	-67.7253	161.203	66.9219	-88.0162	170.359	55.4495	-103.785	176.406	103.115	-68.3653	184.747	96.6274	-90.2283	195.925	92.5957	-120.093	194.812	112.565	-51.8373	206.972	111.908	-75.6001	216.335	111.916	-93.3285	216.532	118.328	-19.3167	226.914	117.762	-28.3109	241.577	128.854	-39.2235	169.294	131.493	-7.45048	155.577	148.79	19.7166	132.49	126.312	-8.36369	
241	2.00833	105.479	99.2498	8.95672	92.2844	69.4027	2.64319	83.8744	50.534	-10.3188	69.7701	35.729	-16.1654	144.723	74.4503	-62.4752	152.629	60.0223	-80.7463	161.517	43.8081	-98.8596	172.551	92.8432	-65.3928	180.607	83.9626	-88.5355	196.393	79.1884	-111.025	193.566	102.059	-50.3696	206.743	98.4094	-73.4349	219.155	96.409	-90.4316	212.744	106.206	-17.3077	227.47	104.313	-26.2877	245.394	115.286	-39.278	168.941	126.819	-8.37181	156.875	143.16	17.9149	133.788	124.138	-8.4589	
242	2.01667	103.907	102.71	9.49086	90.8119	76.8933	4.76789	73.1269	59.1348	-6.42993	61.4453	48.0031	-10.2776	135.996	70.636	-58.1604	144.25	51.9785	-76.7156	155.064	34.9287	-93.7944	170.56	83.3814	-61.7413	176.714	70.53	-87.8622	190.804	63.5527	-107.362	191.674	90.4768	-45.7731	202.956	83.3745	-70.7006	218.774	78.4542	-91.6273	210.516	93.5089	-14.2231	228.426	89.265	-24.5783	243.513	96.681	-39.5802	170.042	116.593	-9.38043	162.592	140.834	17.6995	133.631	124.173	-4.12977	
243	2.025	102.694	109.453	13.8838	85.8597	85.1511	7.82087	69.2038	68.8812	-6.1153	50.8662	62.558	-8.8731	134.394	63.0459	-59.5087	135.686	45.3231	-73.785	142.719	26.6227	-89.5089	167.309	74.8514	-57.9475	174.113	61.2968	-81.3666	184.004	47.9847	-105.718	188.364	77.7192	-45.8746	198.356	68.2133	-67.3683	210.426	59.3988	-86.0107	206.588	77.3193	-14.7864	223.117	70.1935	-23.8118	237.922	71.1173	-35.0508	176.307	109.608	-8.71906	168.161	133.498	16.3768	136.492	121.741	-6.2384	
244	2.03333	105.661	113.932	15.0824	85.232	91.1466	7.1061	63.7134	77.6405	-6.7786	45.6124	75.0814	-9.04235	130.479	60.2457	-54.6568	129.01	40.2138	-71.3789	131.599	18.1378	-87.183	160.514	66.8725	-56.8846	168.364	49.3896	-78.7826	175.038	32.8972	-103.768	186.895	67.0094	-42.8532	196.773	55.0922	-61.6901	205.167	40.652	-85.6	204.404	64.4103	-10.141	216.346	53.5287	-19.6825	236.885	50.3756	-32.8214	174.092	104.482	-6.82101	173.468	127.145	17.3229	140.254	116.816	-8.43708	
245	2.04167	109.898	119.043	14.5436	85.0705	100.737	6.50068	66.0294	91.0343	-4.44115	45.9063	86.2898	-9.87751	125.61	60.5767	-50.1739	119.366	40.9989	-65.5508	122.132	14.1711	-81.691	160.439	58.2413	-54.7319	161.429	41.137	-73.9202	165.511	24.214	-95.8751	184.117	56.0241	-37.3959	188.553	40.8423	-59.9353	196.677	25.5032	-75.2537	201.48	49.6679	-6.41095	209.003	38.8685	-14.2038	225.982	31.9269	-28.8193	176.43	92.75	-5.88718	178.103	121.714	18.4582	144.075	116.199	-4.35571	
246	2.05	112.98	122.95	11.9032	86.5169	110.005	5.01966	67.4278	100.139	-5.88335	46.9806	98.7041	-13.7625	121.518	59.2628	-47.9401	112.974	38.1311	-65.444	111.344	17.3948	-76.744	155.313	50.9319	-52.7317	156.06	32.5242	-71.4721	154.493	12.3637	-94.3765	173.572	48.8782	-36.4386	182.846	30.0482	-55.8686	187.055	11.4396	-71.5535	191.432	41.2319	-3.22666	198.934	29.3925	-9.42556	217.663	15.9253	-25.5922	179.459	86.1863	-2.95197	183.915	113.854	18.9688	147.83	114.644	-4.24936	
